<svg xmlns="http://www.w3.org/2000/svg" width="1024" height="1024" viewBox="0 0 1024 1024">
<g>
<path d="M 362.27 993.37 C351.00,999.02 347.36,1000.37 351.97,997.20 C409.37,957.71 439.56,933.43 476.40,897.16 C516.56,857.61 543.61,822.03 563.95,782.00 C581.52,747.41 590.02,719.83 594.98,681.25 C599.73,644.40 605.95,622.87 619.68,595.76 C635.25,565.04 652.10,544.74 685.50,516.46 C693.20,509.94 708.49,495.64 719.49,484.67 L 739.48 464.74 L 735.99 462.17 C731.28,458.70 719.66,447.01 720.29,446.37 C720.57,446.09 723.00,446.98 725.69,448.34 C728.38,449.71 733.04,451.50 736.04,452.32 C736.51,452.45 736.95,452.58 737.38,452.69 C743.08,454.27 745.30,454.88 746.91,454.15 C748.06,453.62 748.89,452.41 750.45,450.36 C752.40,447.80 754.00,445.44 754.00,445.10 C754.00,444.76 751.30,443.44 748.01,442.17 C738.83,438.61 727.32,430.60 718.69,421.77 C714.40,417.38 711.05,413.61 711.26,413.40 C711.47,413.20 716.08,415.95 721.49,419.52 C737.57,430.12 755.43,434.80 767.75,431.64 C786.02,426.96 808.32,411.69 822.01,394.48 C824.83,390.94 826.89,387.64 826.59,387.15 C826.29,386.66 824.32,385.99 822.22,385.65 C812.97,384.17 798.15,374.06 790.16,363.77 C786.83,359.49 785.99,357.73 786.79,356.77 C787.38,356.07 804.06,344.02 823.85,330.00 C849.49,311.84 859.43,304.27 858.41,303.70 C857.63,303.25 852.93,302.39 847.97,301.78 C826.95,299.19 801.72,305.30 770.50,320.54 C730.92,339.86 686.27,370.78 625.50,420.96 C597.09,444.41 576.67,456.50 552.08,464.39 C533.11,470.49 526.47,471.50 506.00,471.44 C491.86,471.39 486.48,470.96 478.00,469.16 C444.16,461.97 414.34,446.01 390.11,422.12 C377.11,409.29 364.95,392.40 375.74,402.15 C385.76,411.20 410.90,428.86 425.43,437.05 L 431.35 440.39 L 436.72 434.45 C450.51,419.16 462.26,402.08 469.41,386.92 C473.04,379.20 477.56,365.94 476.71,365.47 C476.59,365.41 472.68,364.36 468.02,363.14 C447.60,357.79 428.47,344.16 416.69,326.56 C415.24,324.39 414.20,322.47 414.37,322.29 C414.55,322.12 418.02,325.25 422.10,329.26 C435.96,342.90 452.39,350.89 470.85,352.98 L 470.98 353.00 C475.14,353.47 477.70,353.76 480.10,353.26 C483.98,352.45 487.42,349.58 496.48,342.09 C526.70,317.08 550.55,286.37 563.59,255.67 L 567.88 245.57 L 560.19 242.51 C550.80,238.77 543.11,233.75 536.54,227.06 C531.34,221.76 531.11,220.23 536.15,224.47 C540.70,228.30 554.64,234.78 563.50,237.18 C574.16,240.07 599.85,240.28 613.45,237.58 C626.37,235.02 641.81,230.45 655.00,225.30 C667.82,220.28 698.09,205.89 704.94,201.55 L 709.39 198.73 L 704.87 196.43 C699.91,193.92 689.76,185.10 691.73,185.04 C692.41,185.02 696.87,186.13 701.64,187.51 C719.01,192.55 740.12,192.51 757.74,187.41 C770.92,183.59 775.28,181.45 774.55,179.16 C774.02,177.48 774.89,177.09 782.26,175.74 C788.85,174.53 792.33,173.17 799.04,169.21 C840.34,144.76 867.39,112.45 873.59,80.16 C874.92,73.22 875.49,64.00 874.58,64.00 C874.35,64.00 869.52,65.55 863.83,67.44 C858.15,69.34 849.00,71.84 843.50,73.01 C831.35,75.59 806.30,76.82 799.68,75.15 C795.38,74.07 794.67,74.26 776.87,81.38 C745.11,94.08 711.68,104.50 680.50,111.40 C648.97,118.38 624.10,121.39 585.00,122.95 C572.08,123.47 559.86,124.37 557.87,124.96 C547.45,128.03 543.19,137.45 546.10,151.02 C546.70,153.83 546.93,156.40 546.61,156.72 C546.30,157.04 544.58,154.19 542.80,150.40 C540.57,145.63 539.45,141.57 539.17,137.25 C538.95,133.81 538.35,131.00 537.84,131.00 C537.34,131.00 535.18,131.89 533.05,132.97 C520.66,139.30 518.47,156.16 527.68,174.35 C529.03,177.02 529.93,179.40 529.69,179.64 C528.78,180.56 520.62,169.28 517.65,163.00 C515.55,158.56 514.44,154.52 514.17,150.25 C513.95,146.81 513.55,144.00 513.29,144.00 C512.23,144.00 506.36,148.68 496.69,157.24 C472.14,178.96 446.11,196.16 411.50,213.53 C377.63,230.52 345.22,243.09 305.50,254.63 C273.97,263.79 270.96,264.83 258.50,270.94 C243.67,278.22 232.14,286.54 220.76,298.20 C197.20,322.34 183.76,353.73 182.31,388.00 C181.68,403.04 182.77,413.73 186.60,430.00 C192.67,455.74 197.06,481.34 200.14,509.00 C202.04,526.04 201.74,578.57 199.63,597.64 C193.16,656.10 178.26,707.34 153.00,758.00 C139.62,784.84 131.36,798.29 114.61,820.50 C106.05,831.86 75.57,863.90 74.42,862.75 C74.13,862.46 77.44,857.33 81.77,851.36 C155.41,749.86 187.98,658.81 188.00,554.41 C188.00,514.27 183.73,479.92 173.38,437.00 C167.17,411.22 165.81,393.72 168.48,373.70 C173.12,338.78 188.32,308.42 213.14,284.46 C235.23,263.12 251.12,254.63 290.50,243.10 C317.05,235.32 339.77,227.79 359.50,220.22 C408.13,201.57 456.02,173.57 486.50,145.95 C508.27,126.23 526.36,116.59 552.31,110.90 C559.36,109.35 567.67,108.67 588.00,108.00 C619.56,106.96 631.71,105.85 655.00,101.90 C686.18,96.61 710.49,90.47 743.57,79.51 C775.99,68.77 790.34,62.60 799.00,55.67 C814.66,43.13 833.99,32.25 849.00,27.54 C857.97,24.72 871.24,23.26 877.38,24.41 C881.48,25.18 887.36,29.85 889.55,34.10 C891.49,37.85 891.38,45.79 889.33,49.50 C888.00,51.91 887.65,55.73 887.53,69.00 C887.40,83.84 887.12,86.38 884.69,94.28 C877.81,116.66 861.48,140.19 840.40,158.09 C835.66,162.11 832.30,165.68 832.68,166.29 C833.71,167.96 837.79,188.88 837.19,189.47 C836.90,189.76 835.61,190.00 834.31,190.00 C832.38,190.00 832.06,190.40 832.49,192.25 C832.79,193.49 833.60,197.43 834.31,201.00 C835.47,206.89 835.82,207.50 838.05,207.50 C840.18,207.50 840.48,207.07 840.35,204.25 C840.24,201.72 840.63,200.97 842.10,200.85 C843.15,200.77 844.54,200.65 845.20,200.60 C845.87,200.54 846.67,201.62 847.00,202.99 C847.63,205.67 849.65,206.55 851.89,205.11 C852.81,204.51 853.05,203.33 852.60,201.54 C852.01,199.17 851.58,198.93 848.96,199.51 C846.71,200.00 846.00,199.80 846.00,198.66 C846.00,197.84 845.73,196.45 845.39,195.58 C844.94,194.39 845.42,194.00 847.33,194.00 C850.47,194.00 850.97,193.27 850.28,189.67 C849.81,187.23 849.40,186.94 847.21,187.48 C844.53,188.16 843.04,186.84 843.02,183.75 C843.00,182.53 843.78,182.00 845.56,182.00 C847.85,182.00 848.09,181.65 847.81,178.75 C847.52,175.76 847.25,175.53 844.35,175.81 C841.25,176.12 841.19,176.05 840.47,170.81 C840.07,167.89 839.77,165.27 839.81,165.00 C839.85,164.73 842.27,164.02 845.19,163.42 C848.98,162.66 850.71,162.66 851.23,163.42 C852.48,165.25 852.08,168.04 850.50,168.53 C849.67,168.79 848.38,169.19 847.62,169.42 C846.72,169.70 846.42,170.76 846.76,172.53 C847.22,174.94 847.62,175.16 850.54,174.69 C853.45,174.21 853.85,174.44 854.31,176.82 C854.96,180.26 854.44,181.00 851.37,181.00 C849.23,181.00 848.91,181.40 849.18,183.75 C849.47,186.20 849.86,186.47 852.75,186.19 C854.54,186.01 856.00,186.08 856.00,186.33 C856.00,186.58 856.90,191.15 858.00,196.50 C858.09,196.96 858.19,197.40 858.27,197.83 C859.80,205.23 860.37,207.99 859.25,209.23 C858.53,210.04 857.09,210.21 854.75,210.61 C849.04,211.58 848.89,211.90 850.08,220.50 C850.49,223.40 850.32,223.54 844.96,224.82 C839.53,226.11 839.42,226.20 839.79,229.35 L 840.17 232.56 L 831.83 234.12 C827.25,234.97 823.18,235.40 822.78,235.06 C822.38,234.73 821.93,233.36 821.78,232.03 C821.53,229.82 822.01,229.50 827.00,228.52 C832.18,227.51 832.50,227.28 832.50,224.50 C832.50,222.33 833.03,221.44 834.50,221.17 C837.47,220.63 838.18,219.57 837.47,216.76 C836.95,214.68 836.28,214.25 833.71,214.36 L 830.58 214.50 L 828.36 203.50 C827.14,197.45 826.44,192.21 826.82,191.85 C827.19,191.49 828.40,191.03 829.50,190.83 C830.87,190.59 831.50,189.69 831.50,187.99 C831.50,185.80 831.12,185.54 828.38,185.80 C824.89,186.13 824.51,185.59 823.48,178.73 C822.82,174.31 822.88,174.19 825.79,173.55 C828.17,173.02 828.68,172.48 828.26,170.89 C827.97,169.78 827.16,169.11 826.44,169.38 C823.83,170.39 817.00,175.05 817.00,175.83 C817.00,176.28 818.54,184.26 820.41,193.57 C822.29,202.88 823.69,210.64 823.52,210.81 C822.59,211.75 783.45,218.85 782.79,218.19 C782.37,217.77 781.04,212.35 779.85,206.16 C778.05,196.75 777.43,195.01 776.10,195.53 C767.69,198.80 750.17,202.26 739.58,202.75 L 727.66 203.29 L 719.08 208.25 C690.87,224.58 660.35,237.39 635.00,243.55 C630.88,244.55 627.12,245.69 626.65,246.09 C626.18,246.48 626.95,252.18 628.37,258.76 C633.14,280.98 637.11,310.77 638.52,335.00 C639.73,355.82 635.81,377.24 627.60,394.56 C625.13,399.78 623.62,403.74 624.25,403.35 C624.88,402.96 633.52,396.10 643.45,388.11 C699.19,343.26 748.39,312.23 785.50,298.52 C791.00,296.49 795.84,294.50 796.26,294.10 C796.68,293.70 795.60,286.09 793.85,277.18 C792.11,268.28 790.87,260.80 791.10,260.56 C791.62,260.05 831.39,252.09 831.75,252.43 C831.89,252.56 833.37,259.61 835.04,268.09 C838.71,286.70 839.27,288.24 842.26,287.82 C844.08,287.56 844.44,286.96 844.19,284.60 C843.86,281.58 845.23,280.04 848.24,280.02 C849.50,280.00 850.15,281.11 850.62,284.01 C851.14,287.30 851.74,288.13 853.88,288.60 C864.62,290.94 884.59,300.23 893.04,306.82 C897.28,310.13 901.19,318.49 901.75,325.46 C902.17,330.75 901.84,332.61 899.53,337.75 C898.04,341.08 895.62,344.92 894.16,346.29 C892.70,347.66 882.39,355.27 871.26,363.21 L 851.02 377.65 L 845.96 386.08 C829.40,413.62 803.16,435.95 777.46,444.37 C772.98,445.84 771.80,446.89 766.96,453.68 C749.62,477.99 725.01,503.93 693.52,531.05 C670.78,550.64 659.81,562.43 648.17,579.77 C627.24,610.94 617.00,639.03 611.44,680.50 C606.56,716.92 599.85,740.65 585.53,772.12 C575.76,793.60 557.99,823.09 543.11,842.50 C517.87,875.44 479.96,913.33 445.97,939.61 C421.04,958.88 385.28,981.85 362.27,993.37 ZM 488.27 459.04 C498.80,460.25 520.13,459.25 530.50,457.05 C542.91,454.43 561.19,447.82 567.36,443.72 C599.60,422.31 619.84,393.17 625.05,360.66 C626.69,350.40 625.77,323.80 623.04,302.50 C621.07,287.23 616.12,259.44 614.03,252.00 L 613.04 248.50 L 579.98 248.50 L 577.34 255.50 C571.08,272.08 559.70,291.86 547.26,307.77 C543.12,313.08 539.11,318.90 538.35,320.71 C535.91,326.54 534.00,337.90 534.00,346.56 L 534.00 354.99 L 538.25 358.09 C543.81,362.14 550.36,365.37 556.24,366.97 C561.00,368.26 575.44,368.00 579.50,366.55 C581.49,365.84 581.49,365.84 579.51,367.45 C576.06,370.26 565.24,373.00 557.60,373.00 C551.33,373.00 547.51,372.33 537.14,369.38 C534.90,368.74 534.82,368.89 535.49,372.10 C535.89,373.97 536.53,375.84 536.91,376.26 C538.76,378.26 550.28,381.21 558.20,381.73 C563.04,382.04 567.00,382.62 567.00,383.01 C567.00,384.78 554.68,387.24 543.50,387.71 C537.77,387.95 534.71,387.95 531.96,388.88 C528.12,390.17 524.88,393.28 515.75,401.41 C502.77,412.97 487.53,430.04 478.96,442.63 C475.12,448.26 471.74,453.52 471.43,454.32 C470.78,456.02 476.88,457.73 488.27,459.04 ZM 821.80 372.59 C826.61,374.31 831.28,374.33 835.28,372.65 C839.20,371.01 882.59,340.13 885.85,336.66 C893.71,328.29 887.68,313.00 876.50,313.00 C874.01,313.00 870.07,313.91 867.74,315.02 C864.44,316.59 806.65,357.01 804.21,359.45 C802.64,361.03 814.73,370.07 821.80,372.59 ZM 873.00 287.01 C865.06,289.10 864.05,289.05 863.42,286.53 C862.54,283.04 863.40,282.27 869.00,281.50 C873.66,280.86 874.00,280.62 874.00,277.97 C874.00,275.04 874.41,274.77 880.74,273.50 C882.52,273.14 884.21,272.47 884.50,272.01 C885.38,270.58 882.90,261.00 881.67,261.04 C881.03,261.07 878.53,261.47 876.12,261.93 C871.89,262.75 871.71,262.68 870.63,259.84 C869.70,257.36 869.13,257.00 867.01,257.53 C865.63,257.88 864.35,258.32 864.15,258.51 C863.96,258.70 864.31,261.22 864.93,264.11 C866.24,270.23 866.04,270.47 858.78,271.43 C854.88,271.95 853.95,272.42 854.41,273.63 C854.73,274.47 855.00,275.94 855.00,276.88 C855.00,278.25 855.70,278.52 858.50,278.19 C861.71,277.82 862.00,278.00 862.00,280.39 C862.00,281.83 861.59,283.00 861.08,283.00 C860.58,283.00 859.46,283.27 858.60,283.60 C857.53,284.01 856.72,283.39 856.07,281.67 C855.41,279.95 854.22,279.04 852.30,278.82 C850.28,278.59 849.41,277.87 849.18,276.25 C848.92,274.43 848.22,274.00 845.55,274.00 C842.82,274.00 842.15,273.56 841.76,271.55 C841.37,269.49 841.77,268.99 844.25,268.45 C847.12,267.82 847.18,267.68 846.52,263.27 C845.50,256.51 845.13,255.93 842.29,256.64 C839.21,257.42 838.35,256.19 837.46,249.73 C836.97,246.16 836.42,245.01 835.41,245.40 C834.65,245.69 831.77,246.23 829.01,246.59 L 824.00 247.26 L 824.00 244.29 L 824.00 244.09 C824.00,243.35 824.00,242.80 824.21,242.35 C824.84,240.98 827.41,240.51 837.75,238.48 C840.49,237.94 841.00,237.40 841.00,235.03 C841.00,232.57 841.47,232.14 844.75,231.53 C854.10,229.81 856.80,229.34 857.38,227.97 C857.62,227.41 857.50,226.71 857.34,225.71 L 857.32 225.56 L 856.78 222.26 L 868.23 220.83 L 867.57 216.66 C867.20,214.37 866.68,211.58 866.40,210.46 C865.93,208.61 866.70,208.26 874.66,206.72 C879.49,205.79 883.74,205.36 884.11,205.77 C884.49,206.17 885.10,208.82 885.48,211.65 C886.15,216.74 886.12,216.81 883.26,217.44 C880.74,218.00 880.41,218.46 880.78,220.94 C881.11,223.22 880.74,223.95 878.97,224.51 C876.55,225.28 875.04,223.81 875.02,220.64 C875.00,219.36 874.51,218.97 873.42,219.39 C872.55,219.73 871.20,220.00 870.42,220.00 C869.47,220.00 869.00,221.13 869.00,223.39 C869.00,226.52 868.71,226.83 865.25,227.44 C858.44,228.65 857.93,228.97 858.22,231.83 C858.46,234.07 858.07,234.55 855.82,234.81 C853.39,235.09 853.19,235.42 853.69,238.45 C854.18,241.51 853.98,241.85 851.27,242.44 L 848.30 243.09 L 849.94 251.30 C851.55,259.35 851.64,259.50 854.54,259.50 C857.25,259.50 857.47,259.23 857.21,256.40 L 856.91 253.31 L 863.90 252.15 C873.77,250.52 874.81,250.62 875.18,253.25 C875.45,255.13 876.03,255.45 878.67,255.18 C881.34,254.92 881.90,255.23 882.17,257.18 C882.41,258.89 883.25,259.59 885.37,259.83 C888.12,260.14 888.22,260.01 887.82,256.58 C887.48,253.70 887.74,253.00 889.12,253.00 C890.06,253.00 891.50,252.74 892.32,252.43 C893.45,252.00 893.95,253.00 894.46,256.73 C895.34,263.10 896.20,264.39 898.97,263.51 C900.73,262.95 901.11,262.21 900.79,259.99 C900.43,257.55 900.76,257.10 903.30,256.59 C905.88,256.07 906.18,255.66 905.79,253.04 C905.51,251.10 905.84,249.89 906.76,249.54 C909.55,248.47 910.82,249.05 911.80,251.84 C912.63,254.25 913.23,254.62 915.66,254.26 C918.45,253.85 918.57,254.02 919.58,259.52 C920.67,265.45 920.60,265.59 916.50,266.20 C914.96,266.43 914.43,265.85 914.18,263.69 C913.90,261.30 913.46,260.93 911.18,261.19 C908.86,261.46 908.52,261.93 908.64,264.72 C908.80,268.20 908.51,268.39 901.25,269.51 C897.35,270.12 897.06,270.38 897.62,272.63 C898.14,274.70 897.76,275.27 895.18,276.24 C892.57,277.22 892.21,277.78 892.67,280.09 C893.10,282.23 892.77,282.94 891.11,283.46 C888.45,284.31 887.00,283.42 887.00,280.94 C887.00,278.83 884.16,278.42 878.06,279.64 C875.22,280.21 874.91,280.60 875.19,283.31 C875.45,285.84 875.08,286.47 873.00,287.01 ZM 886.64 198.56 C876.66,200.51 867.73,202.34 866.78,202.61 C865.59,202.96 864.91,202.41 864.57,200.81 C861.85,188.29 856.94,161.72 857.29,161.38 C857.83,160.84 898.22,152.85 898.47,153.23 C898.91,153.90 906.04,191.69 906.02,193.25 C906.01,194.21 905.73,195.00 905.39,195.00 C905.06,195.00 896.62,196.60 886.64,198.56 ZM 247.28 817.50 C242.02,826.18 239.00,830.26 239.00,828.66 C239.00,828.24 239.63,826.68 240.41,825.18 C243.02,820.12 254.76,788.58 259.36,774.27 C274.44,727.28 280.87,689.71 281.04,647.50 C281.14,625.49 281.69,624.92 285.04,643.36 C294.47,695.23 279.49,764.30 247.28,817.50 ZM 511.50 508.95 C502.86,510.53 485.71,511.03 477.00,509.95 C444.34,505.92 413.11,491.33 389.92,469.26 C384.98,464.56 381.16,460.51 381.42,460.24 C381.68,459.98 385.41,461.79 389.70,464.26 C412.52,477.39 437.22,488.04 456.71,493.14 C480.69,499.41 485.88,500.12 511.86,500.70 C526.22,501.03 535.66,501.61 534.86,502.12 C532.75,503.47 518.16,507.74 511.50,508.95 ZM 810.17 61.90 C809.53,63.94 837.46,62.70 850.00,60.13 C875.87,54.83 887.88,44.72 878.93,35.78 C875.89,32.73 875.81,32.72 867.68,33.30 C857.34,34.04 847.88,36.94 836.75,42.77 C827.47,47.63 810.90,59.55 810.17,61.90 ZM 221.31 373.53 C219.84,378.74 218.32,383.00 217.94,383.00 C215.05,383.00 214.05,359.65 216.50,349.26 C219.88,334.94 229.66,319.49 240.98,310.60 C250.66,302.99 267.44,296.00 276.01,296.00 C279.01,296.00 278.84,296.23 271.54,302.03 C242.93,324.76 229.81,343.45 221.31,373.53 ZM 869.51 192.75 C869.80,193.99 870.59,195.00 871.27,195.00 C875.27,195.00 899.00,189.53 899.00,188.61 C899.00,188.00 897.81,181.54 896.36,174.25 C893.92,162.02 893.54,161.00 891.50,161.00 C889.38,161.00 864.92,165.75 864.41,166.26 C864.19,166.47 868.12,186.87 869.51,192.75 ZM 519.50 536.87 C505.04,539.25 491.81,538.82 479.27,535.57 C472.94,533.93 466.00,531.28 466.00,530.51 C466.00,530.25 473.84,530.05 483.43,530.05 C514.17,530.07 535.70,525.03 563.31,511.35 C569.25,508.41 574.31,506.00 574.56,506.00 C576.11,506.00 571.41,511.04 564.84,516.42 C552.16,526.82 535.87,534.17 519.50,536.87 ZM 803.00 291.64 C803.00,292.23 804.02,292.07 814.00,290.00 C819.22,288.91 825.41,288.02 827.75,288.01 C831.13,288.00 832.00,287.64 831.99,286.25 C831.97,283.53 827.34,261.00 826.66,260.33 C825.89,259.55 798.00,265.10 798.00,266.03 C798.00,266.41 799.12,272.25 800.50,279.00 C801.88,285.75 803.00,291.44 803.00,291.64 ZM 888.36 247.42 C886.24,247.80 883.71,248.34 882.75,248.62 C881.78,248.91 880.77,248.54 880.51,247.82 C880.05,246.55 877.00,232.32 877.00,231.43 C877.00,231.19 875.54,231.11 873.75,231.25 C870.87,231.47 870.46,231.18 870.18,228.75 C869.90,226.28 870.18,226.00 872.93,226.00 C874.71,226.00 876.01,226.53 876.02,227.25 C876.05,230.45 877.42,230.91 883.02,229.65 C888.30,228.45 888.48,228.30 888.08,225.45 C886.91,217.13 887.09,216.72 892.50,215.56 C896.88,214.62 897.50,214.17 897.50,211.99 C897.50,209.83 897.08,209.52 894.31,209.64 C891.53,209.76 891.03,209.39 890.46,206.82 C890.10,205.19 889.97,203.71 890.15,203.52 C890.34,203.34 893.05,202.88 896.17,202.49 C901.59,201.82 901.85,201.89 902.17,204.15 C902.43,205.98 903.27,206.61 905.97,207.00 C909.20,207.46 909.50,207.82 910.23,212.00 C911.15,217.39 910.69,219.00 908.20,219.00 C905.64,219.00 905.21,219.64 905.76,222.55 C906.19,224.77 906.60,224.98 909.49,224.44 C912.52,223.87 912.78,224.04 913.19,226.85 C913.57,229.40 913.25,229.97 911.17,230.49 C908.43,231.18 907.37,230.45 906.83,227.50 C906.56,226.03 905.68,225.50 903.48,225.50 C900.97,225.50 900.45,225.06 900.18,222.75 C899.91,220.38 900.22,220.00 902.43,220.00 C904.22,220.00 905.00,219.47 904.98,218.25 C904.96,215.35 903.41,213.81 900.89,214.16 C898.87,214.45 898.55,214.98 898.81,217.61 C899.09,220.36 898.77,220.80 896.18,221.31 L 893.24 221.90 L 894.98 230.42 C895.94,235.11 896.49,239.18 896.20,239.47 C895.90,239.76 894.64,240.00 893.40,240.00 C891.38,240.00 891.19,240.37 891.67,243.37 C892.20,246.62 892.09,246.76 888.36,247.42 ZM 807.61 250.98 C802.20,252.09 797.19,253.00 796.47,253.00 C795.65,253.00 794.83,250.99 794.31,247.75 C793.54,242.92 793.25,242.50 790.74,242.46 C789.24,242.43 787.63,241.98 787.16,241.46 C785.78,239.91 783.68,225.92 784.68,224.92 C785.17,224.43 787.81,223.91 790.54,223.76 C795.02,223.53 795.53,223.72 795.82,225.75 C796.07,227.52 796.79,228.00 799.18,228.00 C802.05,228.00 802.20,227.81 801.82,224.58 C801.47,221.57 801.73,221.09 803.96,220.66 C805.36,220.40 806.65,220.32 806.83,220.50 C807.00,220.67 808.13,225.81 809.33,231.91 L 811.50 243.00 L 814.63 243.00 C817.03,243.00 817.90,243.52 818.35,245.23 C818.67,246.46 818.60,247.80 818.19,248.21 C817.78,248.62 813.02,249.86 807.61,250.98 ZM 787.06 209.63 L 787.86 211.75 L 801.46 209.01 C808.95,207.50 815.31,206.02 815.61,205.73 C816.23,205.10 812.00,181.62 810.96,179.93 C810.34,178.93 807.49,180.10 804.01,182.77 C803.74,182.98 804.23,183.55 805.11,184.04 C806.46,184.80 809.34,196.54 809.15,200.50 C809.10,201.57 793.01,205.13 791.75,204.35 C791.34,204.09 791.00,203.26 791.00,202.49 C791.00,201.72 790.51,198.83 789.92,196.05 C788.84,191.05 787.83,190.19 785.08,191.93 C783.86,192.70 783.84,193.90 784.95,200.17 C785.67,204.20 786.62,208.46 787.06,209.63 ZM 818.00 285.92 C814.42,286.58 810.73,287.34 809.78,287.61 C808.59,287.96 807.92,287.42 807.58,285.81 C807.31,284.54 806.44,280.43 805.63,276.69 C804.54,271.60 804.46,269.77 805.33,269.47 C806.89,268.94 822.45,266.10 822.59,266.32 C823.42,267.73 825.80,283.58 825.25,284.06 C824.84,284.43 821.58,285.27 818.00,285.92 ZM 884.80 186.58 C884.38,186.67 883.97,186.76 883.58,186.84 C878.93,187.85 876.67,188.34 875.35,187.44 C874.00,186.51 873.65,184.12 872.72,179.31 C871.80,174.53 871.15,170.57 871.27,170.50 C871.90,170.15 888.54,167.25 888.76,167.45 C889.46,168.09 892.21,184.12 891.70,184.63 C891.37,184.96 888.27,185.83 884.80,186.58 ZM 860.53 243.50 C860.50,246.02 860.06,246.55 857.75,246.82 C855.29,247.10 855.00,246.82 855.00,244.14 C855.00,241.79 855.49,241.07 857.25,240.82 C859.10,240.56 859.46,239.94 859.26,237.36 C859.04,234.46 859.31,234.17 862.76,233.54 C864.82,233.17 867.44,232.64 868.60,232.36 C870.45,231.92 870.83,232.52 871.85,237.62 C872.76,242.16 872.74,243.55 871.75,244.19 C869.66,245.54 867.52,244.61 867.17,242.18 C866.90,240.26 866.33,239.94 863.70,240.19 C860.96,240.46 860.56,240.88 860.53,243.50 ZM 827.45 222.46 C824.86,222.84 822.15,223.39 821.41,223.67 C819.98,224.22 818.38,219.82 819.41,218.15 C819.99,217.21 829.78,215.44 830.48,216.15 C830.68,216.34 831.13,217.68 831.50,219.13 C832.12,221.62 831.92,221.79 827.45,222.46 ZM 908.63 243.23 C905.70,245.14 904.30,243.94 903.07,238.42 C902.38,235.35 901.97,232.72 902.16,232.56 C902.35,232.41 903.66,232.00 905.09,231.66 C907.56,231.07 907.72,231.29 908.72,236.77 C909.48,240.96 909.46,242.70 908.63,243.23 ZM 871.84 275.12 C869.30,276.73 867.22,276.03 866.55,273.34 C865.80,270.37 867.28,268.83 870.50,269.24 C872.87,269.55 873.85,273.85 871.84,275.12 ZM 916.39 278.17 C915.27,279.99 911.23,278.99 910.63,276.75 C909.69,273.23 909.82,273.00 912.88,273.00 C915.00,273.00 915.92,273.58 916.34,275.17 C916.65,276.37 916.67,277.72 916.39,278.17 ZM 799.67 245.33 C799.94,245.61 800.12,245.80 800.33,245.88 C800.75,246.05 801.32,245.83 803.11,245.15 L 803.36 245.05 C806.94,243.69 805.87,240.00 801.88,240.00 C799.53,240.00 799.00,240.43 799.00,242.33 C799.00,243.62 799.30,244.97 799.67,245.33 ZM 904.56 279.29 C904.94,280.28 904.27,280.91 902.48,281.25 C899.83,281.76 899.36,281.28 898.80,277.50 C898.57,275.97 899.15,275.43 901.25,275.18 C903.16,274.96 904.00,275.32 904.00,276.35 C904.00,277.17 904.25,278.49 904.56,279.29 ZM 884.48 238.93 C885.52,242.23 890.50,241.46 890.50,238.00 C890.50,236.25 889.90,235.42 888.50,235.24 C885.41,234.85 883.68,236.43 884.48,238.93 Z" fill="rgb(16,14,12)"/>
<path d="M 566.62 383.58 C566.87,383.38 567.00,383.19 567.00,383.01 C567.00,382.64 563.58,382.12 559.20,381.80 C561.20,381.87 563.13,381.83 564.91,381.68 C571.19,381.12 571.37,381.17 568.72,382.60 C568.09,382.93 567.39,383.26 566.62,383.58 ZM 537.14 388.00 C538.86,387.88 540.91,387.82 543.50,387.71 C548.48,387.50 553.69,386.90 557.93,386.13 C552.57,387.28 546.43,388.00 540.97,388.00 ZM 560.18 372.91 C563.82,372.66 567.86,371.93 571.38,370.95 C571.13,371.03 570.89,371.10 570.64,371.18 C566.65,372.39 564.04,372.88 560.18,372.91 ZM 506.39 410.28 C509.56,407.11 512.71,404.11 515.75,401.41 C521.01,396.72 524.31,393.71 526.91,391.74 L 520.35 397.37 C515.72,401.35 510.99,405.73 506.39,410.28 ZM 542.16 378.66 C539.55,377.84 537.59,376.99 536.91,376.26 C536.73,376.06 536.50,375.56 536.26,374.88 C536.94,376.20 538.15,376.99 540.67,378.07 C541.14,378.28 541.64,378.47 542.16,378.66 ZM 535.47 372.00 C534.82,368.89 534.93,368.75 537.14,369.38 C540.84,370.43 543.71,371.19 546.15,371.74 C543.88,371.35 541.91,370.91 540.70,370.48 C538.05,369.54 535.69,368.98 535.44,369.23 C535.23,369.43 535.26,370.60 535.47,372.00 ZM 579.41 367.53 C579.45,367.51 579.48,367.48 579.51,367.45 C581.49,365.84 581.49,365.84 579.50,366.55 L 581.50 365.84 L 579.51 367.45 L 579.50 367.46 C579.47,367.49 579.44,367.51 579.41,367.53 ZM 488.27 459.04 C481.06,458.21 475.97,457.22 473.37,456.18 C476.01,457.22 481.17,458.22 488.27,459.04 ZM 478.60 443.15 C478.72,442.98 478.84,442.80 478.96,442.63 C479.83,441.34 480.78,440.01 481.78,438.65 C480.71,440.14 479.64,441.66 478.60,443.15 ZM 471.42 454.35 C471.42,454.34 471.43,454.33 471.43,454.32 C471.45,454.28 471.47,454.22 471.51,454.15 C471.47,454.22 471.44,454.29 471.42,454.35 Z" fill="rgb(107,103,100)"/>
<path d="M 0.00 512.00 L 0.00 0.00 L 512.00 0.00 L 1024.00 0.00 L 1024.00 512.00 L 1024.00 1024.00 L 512.00 1024.00 L 0.00 1024.00 L 0.00 512.00 ZM 362.27 993.37 C385.28,981.85 421.04,958.88 445.97,939.61 C479.96,913.33 517.87,875.44 543.11,842.50 C557.99,823.09 575.76,793.60 585.53,772.12 C599.85,740.65 606.56,716.92 611.44,680.50 C617.00,639.03 627.24,610.94 648.17,579.77 C659.81,562.43 670.78,550.64 693.52,531.05 C725.01,503.93 749.62,477.99 766.96,453.68 C771.80,446.89 772.98,445.84 777.46,444.37 C803.16,435.95 829.40,413.62 845.96,386.08 L 851.02 377.65 L 871.26 363.21 C882.39,355.27 892.70,347.66 894.16,346.29 C895.62,344.92 898.04,341.08 899.53,337.75 C901.84,332.61 902.17,330.75 901.75,325.46 C901.19,318.49 897.28,310.13 893.04,306.82 C884.59,300.23 864.62,290.94 853.88,288.60 C851.74,288.13 851.14,287.30 850.62,284.01 C850.15,281.11 849.50,280.00 848.24,280.02 C845.23,280.04 843.86,281.58 844.19,284.60 C844.44,286.96 844.08,287.56 842.26,287.82 C839.27,288.24 838.71,286.70 835.04,268.09 C833.37,259.61 831.89,252.56 831.75,252.43 C831.39,252.09 791.62,260.05 791.10,260.56 C790.87,260.80 792.11,268.28 793.85,277.18 C795.60,286.09 796.68,293.70 796.26,294.10 C795.84,294.50 791.00,296.49 785.50,298.52 C748.39,312.23 699.19,343.26 643.45,388.11 C633.52,396.10 624.88,402.96 624.25,403.35 C623.62,403.74 625.13,399.78 627.60,394.56 C635.81,377.24 639.73,355.82 638.52,335.00 C637.11,310.77 633.14,280.98 628.37,258.76 C626.95,252.18 626.18,246.48 626.65,246.09 C627.12,245.69 630.88,244.55 635.00,243.55 C660.35,237.39 690.87,224.58 719.08,208.25 L 727.66 203.29 L 739.58 202.75 C750.17,202.26 767.69,198.80 776.10,195.53 C777.43,195.01 778.05,196.75 779.85,206.16 C781.04,212.35 782.37,217.77 782.79,218.19 C783.45,218.85 822.59,211.75 823.52,210.81 C823.69,210.64 822.29,202.88 820.41,193.57 C818.54,184.26 817.00,176.28 817.00,175.83 C817.00,175.05 823.83,170.39 826.44,169.38 C827.16,169.11 827.97,169.78 828.26,170.89 C828.68,172.48 828.17,173.02 825.79,173.55 C822.88,174.19 822.82,174.31 823.48,178.73 C824.51,185.59 824.89,186.13 828.38,185.80 C831.12,185.54 831.50,185.80 831.50,187.99 C831.50,189.69 830.87,190.59 829.50,190.83 C828.40,191.03 827.19,191.49 826.82,191.85 C826.44,192.21 827.14,197.45 828.36,203.50 L 830.58 214.50 L 833.71 214.36 C836.28,214.25 836.95,214.68 837.47,216.76 C838.18,219.57 837.47,220.63 834.50,221.17 C833.03,221.44 832.50,222.33 832.50,224.50 C832.50,227.28 832.18,227.51 827.00,228.52 C822.01,229.50 821.53,229.82 821.78,232.03 C821.93,233.36 822.38,234.73 822.78,235.06 C823.18,235.40 827.25,234.97 831.83,234.12 L 840.17 232.56 L 839.79 229.35 C839.42,226.20 839.53,226.11 844.96,224.82 C850.32,223.54 850.49,223.40 850.08,220.50 C848.89,211.90 849.04,211.58 854.75,210.61 C860.91,209.56 860.79,210.08 858.00,196.50 C856.90,191.15 856.00,186.58 856.00,186.33 C856.00,186.08 854.54,186.01 852.75,186.19 C849.86,186.47 849.47,186.20 849.18,183.75 C848.91,181.40 849.23,181.00 851.37,181.00 C854.44,181.00 854.96,180.26 854.31,176.82 C853.85,174.44 853.45,174.21 850.54,174.69 C847.62,175.16 847.22,174.94 846.76,172.53 C846.42,170.76 846.72,169.70 847.62,169.42 C848.38,169.19 849.67,168.79 850.50,168.53 C852.08,168.04 852.48,165.25 851.23,163.42 C850.71,162.66 848.98,162.66 845.19,163.42 C842.27,164.02 839.85,164.73 839.81,165.00 C839.77,165.27 840.07,167.89 840.47,170.81 C841.19,176.05 841.25,176.12 844.35,175.81 C847.25,175.53 847.52,175.76 847.81,178.75 C848.09,181.65 847.85,182.00 845.56,182.00 C843.78,182.00 843.00,182.53 843.02,183.75 C843.04,186.84 844.53,188.16 847.21,187.48 C849.40,186.94 849.81,187.23 850.28,189.67 C850.97,193.27 850.47,194.00 847.33,194.00 C845.42,194.00 844.94,194.39 845.39,195.58 C845.73,196.45 846.00,197.84 846.00,198.66 C846.00,199.80 846.71,200.00 848.96,199.51 C851.58,198.93 852.01,199.17 852.60,201.54 C853.05,203.33 852.81,204.51 851.89,205.11 C849.65,206.55 847.63,205.67 847.00,202.99 C846.67,201.62 845.87,200.54 845.20,200.60 C844.54,200.65 843.15,200.77 842.10,200.85 C840.63,200.97 840.24,201.72 840.35,204.25 C840.48,207.07 840.18,207.50 838.05,207.50 C835.82,207.50 835.47,206.89 834.31,201.00 C833.60,197.43 832.79,193.49 832.49,192.25 C832.06,190.40 832.38,190.00 834.31,190.00 C835.61,190.00 836.90,189.76 837.19,189.47 C837.79,188.88 833.71,167.96 832.68,166.29 C832.30,165.68 835.66,162.11 840.40,158.09 C861.48,140.19 877.81,116.66 884.69,94.28 C887.12,86.38 887.40,83.84 887.53,69.00 C887.65,55.73 888.00,51.91 889.33,49.50 C891.38,45.79 891.49,37.85 889.55,34.10 C887.36,29.85 881.48,25.18 877.38,24.41 C871.24,23.26 857.97,24.72 849.00,27.54 C833.99,32.25 814.66,43.13 799.00,55.67 C790.34,62.60 775.99,68.77 743.57,79.51 C710.49,90.47 686.18,96.61 655.00,101.90 C631.71,105.85 619.56,106.96 588.00,108.00 C567.67,108.67 559.36,109.35 552.31,110.90 C526.36,116.59 508.27,126.23 486.50,145.95 C456.02,173.57 408.13,201.57 359.50,220.22 C339.77,227.79 317.05,235.32 290.50,243.10 C251.12,254.63 235.23,263.12 213.14,284.46 C188.32,308.42 173.12,338.78 168.48,373.70 C165.81,393.72 167.17,411.22 173.38,437.00 C183.73,479.92 188.00,514.27 188.00,554.41 C187.98,658.81 155.41,749.86 81.77,851.36 C77.44,857.33 74.13,862.46 74.42,862.75 C75.57,863.90 106.05,831.86 114.61,820.50 C131.36,798.29 139.62,784.84 153.00,758.00 C178.26,707.34 193.16,656.10 199.63,597.64 C201.74,578.57 202.04,526.04 200.14,509.00 C197.06,481.34 192.67,455.74 186.60,430.00 C182.77,413.73 181.68,403.04 182.31,388.00 C183.76,353.73 197.20,322.34 220.76,298.20 C232.14,286.54 243.67,278.22 258.50,270.94 C270.96,264.83 273.97,263.79 305.50,254.63 C345.22,243.09 377.63,230.52 411.50,213.53 C446.11,196.16 472.14,178.96 496.69,157.24 C506.36,148.68 512.23,144.00 513.29,144.00 C513.55,144.00 513.95,146.81 514.17,150.25 C514.44,154.52 515.55,158.56 517.65,163.00 C520.62,169.28 528.78,180.56 529.69,179.64 C529.93,179.40 529.03,177.02 527.68,174.35 C518.47,156.16 520.66,139.30 533.05,132.97 C535.18,131.89 537.34,131.00 537.84,131.00 C538.35,131.00 538.95,133.81 539.17,137.25 C539.45,141.57 540.57,145.63 542.80,150.40 C544.58,154.19 546.30,157.04 546.61,156.72 C546.93,156.40 546.70,153.83 546.10,151.02 C543.19,137.45 547.45,128.03 557.87,124.96 C559.86,124.37 572.08,123.47 585.00,122.95 C624.10,121.39 648.97,118.38 680.50,111.40 C711.68,104.50 745.11,94.08 776.87,81.38 C794.67,74.26 795.38,74.07 799.68,75.15 C806.30,76.82 831.35,75.59 843.50,73.01 C849.00,71.84 858.15,69.34 863.83,67.44 C869.52,65.55 874.35,64.00 874.58,64.00 C875.49,64.00 874.92,73.22 873.59,80.16 C867.39,112.45 840.34,144.76 799.04,169.21 C792.33,173.17 788.85,174.53 782.26,175.74 C774.89,177.09 774.02,177.48 774.55,179.16 C775.28,181.45 770.92,183.59 757.74,187.41 C740.12,192.51 719.01,192.55 701.64,187.51 C696.87,186.13 692.41,185.02 691.73,185.04 C689.76,185.10 699.91,193.92 704.87,196.43 L 709.39 198.73 L 704.94 201.55 C698.09,205.89 667.82,220.28 655.00,225.30 C641.81,230.45 626.37,235.02 613.45,237.58 C599.85,240.28 574.16,240.07 563.50,237.18 C554.64,234.78 540.70,228.30 536.15,224.47 C531.11,220.23 531.34,221.76 536.54,227.06 C543.11,233.75 550.80,238.77 560.19,242.51 L 567.88 245.57 L 563.59 255.67 C550.55,286.37 526.70,317.08 496.48,342.09 C481.76,354.27 481.86,354.23 470.85,352.98 C452.39,350.89 435.96,342.90 422.10,329.26 C418.02,325.25 414.55,322.12 414.37,322.29 C414.20,322.47 415.24,324.39 416.69,326.56 C428.47,344.16 447.60,357.79 468.02,363.14 C472.68,364.36 476.59,365.41 476.71,365.47 C477.56,365.94 473.04,379.20 469.41,386.92 C462.26,402.08 450.51,419.16 436.72,434.45 L 431.35 440.39 L 425.43 437.05 C410.90,428.86 385.76,411.20 375.74,402.15 C364.95,392.40 377.11,409.29 390.11,422.12 C414.34,446.01 444.16,461.97 478.00,469.16 C486.48,470.96 491.86,471.39 506.00,471.44 C526.47,471.50 533.11,470.49 552.08,464.39 C576.67,456.50 597.09,444.41 625.50,420.96 C686.27,370.78 730.92,339.86 770.50,320.54 C801.72,305.30 826.95,299.19 847.97,301.78 C852.93,302.39 857.63,303.25 858.41,303.70 C859.43,304.27 849.49,311.84 823.85,330.00 C804.06,344.02 787.38,356.07 786.79,356.77 C785.99,357.73 786.83,359.49 790.16,363.77 C798.15,374.06 812.97,384.17 822.22,385.65 C824.32,385.99 826.29,386.66 826.59,387.15 C826.89,387.64 824.83,390.94 822.01,394.48 C808.32,411.69 786.02,426.96 767.75,431.64 C755.43,434.80 737.57,430.12 721.49,419.52 C716.08,415.95 711.47,413.20 711.26,413.40 C711.05,413.61 714.40,417.38 718.69,421.77 C727.32,430.60 738.83,438.61 748.01,442.17 C751.30,443.44 754.00,444.76 754.00,445.10 C754.00,445.44 752.40,447.80 750.45,450.36 C746.54,455.48 747.20,455.39 736.04,452.32 C733.04,451.50 728.38,449.71 725.69,448.34 C723.00,446.98 720.57,446.09 720.29,446.37 C719.66,447.01 731.28,458.70 735.99,462.17 L 739.48 464.74 L 719.49 484.67 C708.49,495.64 693.20,509.94 685.50,516.46 C652.10,544.74 635.25,565.04 619.68,595.76 C605.95,622.87 599.73,644.40 594.98,681.25 C590.02,719.83 581.52,747.41 563.95,782.00 C543.61,822.03 516.56,857.61 476.40,897.16 C439.56,933.43 409.37,957.71 351.97,997.20 C347.36,1000.37 351.00,999.02 362.27,993.37 ZM 247.28 817.50 C279.49,764.30 294.47,695.23 285.04,643.36 C281.69,624.92 281.14,625.49 281.04,647.50 C280.87,689.71 274.44,727.28 259.36,774.27 C254.76,788.58 243.02,820.12 240.41,825.18 C239.63,826.68 239.00,828.24 239.00,828.66 C239.00,830.26 242.02,826.18 247.28,817.50 ZM 519.50 536.87 C535.87,534.17 552.16,526.82 564.84,516.42 C571.41,511.04 576.11,506.00 574.56,506.00 C574.31,506.00 569.25,508.41 563.31,511.35 C535.70,525.03 514.17,530.07 483.43,530.05 C473.84,530.05 466.00,530.25 466.00,530.51 C466.00,531.28 472.94,533.93 479.27,535.57 C491.81,538.82 505.04,539.25 519.50,536.87 ZM 511.50 508.95 C518.16,507.74 532.75,503.47 534.86,502.12 C535.66,501.61 526.22,501.03 511.86,500.70 C485.88,500.12 480.69,499.41 456.71,493.14 C437.22,488.04 412.52,477.39 389.70,464.26 C385.41,461.79 381.68,459.98 381.42,460.24 C381.16,460.51 384.98,464.56 389.92,469.26 C413.11,491.33 444.34,505.92 477.00,509.95 C485.71,511.03 502.86,510.53 511.50,508.95 ZM 221.31 373.53 C229.81,343.45 242.93,324.76 271.54,302.03 C278.84,296.23 279.01,296.00 276.01,296.00 C267.44,296.00 250.66,302.99 240.98,310.60 C229.66,319.49 219.88,334.94 216.50,349.26 C214.05,359.65 215.05,383.00 217.94,383.00 C218.32,383.00 219.84,378.74 221.31,373.53 ZM 873.00 287.01 C875.08,286.47 875.45,285.84 875.19,283.31 C874.91,280.60 875.22,280.21 878.06,279.64 C884.16,278.42 887.00,278.83 887.00,280.94 C887.00,283.42 888.45,284.31 891.11,283.46 C892.77,282.94 893.10,282.23 892.67,280.09 C892.21,277.78 892.57,277.22 895.18,276.24 C897.76,275.27 898.14,274.70 897.62,272.63 C897.06,270.38 897.35,270.12 901.25,269.51 C908.51,268.39 908.80,268.20 908.64,264.72 C908.52,261.93 908.86,261.46 911.18,261.19 C913.46,260.93 913.90,261.30 914.18,263.69 C914.43,265.85 914.96,266.43 916.50,266.20 C920.60,265.59 920.67,265.45 919.58,259.52 C918.57,254.02 918.45,253.85 915.66,254.26 C913.23,254.62 912.63,254.25 911.80,251.84 C910.82,249.05 909.55,248.47 906.76,249.54 C905.84,249.89 905.51,251.10 905.79,253.04 C906.18,255.66 905.88,256.07 903.30,256.59 C900.76,257.10 900.43,257.55 900.79,259.99 C901.11,262.21 900.73,262.95 898.97,263.51 C896.20,264.39 895.34,263.10 894.46,256.73 C893.95,253.00 893.45,252.00 892.32,252.43 C891.50,252.74 890.06,253.00 889.12,253.00 C887.74,253.00 887.48,253.70 887.82,256.58 C888.22,260.01 888.12,260.14 885.37,259.83 C883.25,259.59 882.41,258.89 882.17,257.18 C881.90,255.23 881.34,254.92 878.67,255.18 C876.03,255.45 875.45,255.13 875.18,253.25 C874.81,250.62 873.77,250.52 863.90,252.15 L 856.91 253.31 L 857.21 256.40 C857.47,259.23 857.25,259.50 854.54,259.50 C851.64,259.50 851.55,259.35 849.94,251.30 L 848.30 243.09 L 851.27 242.44 C853.98,241.85 854.18,241.51 853.69,238.45 C853.19,235.42 853.39,235.09 855.82,234.81 C858.07,234.55 858.46,234.07 858.22,231.83 C857.93,228.97 858.44,228.65 865.25,227.44 C868.71,226.83 869.00,226.52 869.00,223.39 C869.00,221.13 869.47,220.00 870.42,220.00 C871.20,220.00 872.55,219.73 873.42,219.39 C874.51,218.97 875.00,219.36 875.02,220.64 C875.04,223.81 876.55,225.28 878.97,224.51 C880.74,223.95 881.11,223.22 880.78,220.94 C880.41,218.46 880.74,218.00 883.26,217.44 C886.12,216.81 886.15,216.74 885.48,211.65 C885.10,208.82 884.49,206.17 884.11,205.77 C883.74,205.36 879.49,205.79 874.66,206.72 C866.70,208.26 865.93,208.61 866.40,210.46 C866.68,211.58 867.20,214.37 867.57,216.66 L 868.23 220.83 L 862.50 221.54 L 856.78 222.26 L 857.32 225.56 C857.90,229.17 858.08,229.08 844.75,231.53 C841.47,232.14 841.00,232.57 841.00,235.03 C841.00,237.40 840.49,237.94 837.75,238.48 C823.70,241.24 824.00,241.11 824.00,244.29 L 824.00 247.26 L 829.01 246.59 C831.77,246.23 834.65,245.69 835.41,245.40 C836.42,245.01 836.97,246.16 837.46,249.73 C838.35,256.19 839.21,257.42 842.29,256.64 C845.13,255.93 845.50,256.51 846.52,263.27 C847.18,267.68 847.12,267.82 844.25,268.45 C841.77,268.99 841.37,269.49 841.76,271.55 C842.15,273.56 842.82,274.00 845.55,274.00 C848.22,274.00 848.92,274.43 849.18,276.25 C849.41,277.87 850.28,278.59 852.30,278.82 C854.22,279.04 855.41,279.95 856.07,281.67 C856.72,283.39 857.53,284.01 858.60,283.60 C859.46,283.27 860.58,283.00 861.08,283.00 C861.59,283.00 862.00,281.83 862.00,280.39 C862.00,278.00 861.71,277.82 858.50,278.19 C855.70,278.52 855.00,278.25 855.00,276.88 C855.00,275.94 854.73,274.47 854.41,273.63 C853.95,272.42 854.88,271.95 858.78,271.43 C866.04,270.47 866.24,270.23 864.93,264.11 C864.31,261.22 863.96,258.70 864.15,258.51 C864.35,258.32 865.63,257.88 867.01,257.53 C869.13,257.00 869.70,257.36 870.63,259.84 C871.71,262.68 871.89,262.75 876.12,261.93 C878.53,261.47 881.03,261.07 881.67,261.04 C882.90,261.00 885.38,270.58 884.50,272.01 C884.21,272.47 882.52,273.14 880.74,273.50 C874.41,274.77 874.00,275.04 874.00,277.97 C874.00,280.62 873.66,280.86 869.00,281.50 C863.40,282.27 862.54,283.04 863.42,286.53 C864.05,289.05 865.06,289.10 873.00,287.01 ZM 904.56 279.29 C904.25,278.49 904.00,277.17 904.00,276.35 C904.00,275.32 903.16,274.96 901.25,275.18 C899.15,275.43 898.57,275.97 898.80,277.50 C899.36,281.28 899.83,281.76 902.48,281.25 C904.27,280.91 904.94,280.28 904.56,279.29 ZM 916.39 278.17 C916.67,277.72 916.65,276.37 916.34,275.17 C915.92,273.58 915.00,273.00 912.88,273.00 C909.82,273.00 909.69,273.23 910.63,276.75 C911.23,278.99 915.27,279.99 916.39,278.17 ZM 871.84 275.12 C873.85,273.85 872.87,269.55 870.50,269.24 C867.28,268.83 865.80,270.37 866.55,273.34 C867.22,276.03 869.30,276.73 871.84,275.12 ZM 807.61 250.98 C813.02,249.86 817.78,248.62 818.19,248.21 C818.60,247.80 818.67,246.46 818.35,245.23 C817.90,243.52 817.03,243.00 814.63,243.00 L 811.50 243.00 L 809.33 231.91 C808.13,225.81 807.00,220.67 806.83,220.50 C806.65,220.32 805.36,220.40 803.96,220.66 C801.73,221.09 801.47,221.57 801.82,224.58 C802.20,227.81 802.05,228.00 799.18,228.00 C796.79,228.00 796.07,227.52 795.82,225.75 C795.53,223.72 795.02,223.53 790.54,223.76 C787.81,223.91 785.17,224.43 784.68,224.92 C783.68,225.92 785.78,239.91 787.16,241.46 C787.63,241.98 789.24,242.43 790.74,242.46 C793.25,242.50 793.54,242.92 794.31,247.75 C794.83,250.99 795.65,253.00 796.47,253.00 C797.19,253.00 802.20,252.09 807.61,250.98 ZM 888.36 247.42 C892.09,246.76 892.20,246.62 891.67,243.37 C891.19,240.37 891.38,240.00 893.40,240.00 C894.64,240.00 895.90,239.76 896.20,239.47 C896.49,239.18 895.94,235.11 894.98,230.42 L 893.24 221.90 L 896.18 221.31 C898.77,220.80 899.09,220.36 898.81,217.61 C898.55,214.98 898.87,214.45 900.89,214.16 C903.41,213.81 904.96,215.35 904.98,218.25 C905.00,219.47 904.22,220.00 902.43,220.00 C900.22,220.00 899.91,220.38 900.18,222.75 C900.45,225.06 900.97,225.50 903.48,225.50 C905.68,225.50 906.56,226.03 906.83,227.50 C907.37,230.45 908.43,231.18 911.17,230.49 C913.25,229.97 913.57,229.40 913.19,226.85 C912.78,224.04 912.52,223.87 909.49,224.44 C906.60,224.98 906.19,224.77 905.76,222.55 C905.21,219.64 905.64,219.00 908.20,219.00 C910.69,219.00 911.15,217.39 910.23,212.00 C909.50,207.82 909.20,207.46 905.97,207.00 C903.27,206.61 902.43,205.98 902.17,204.15 C901.85,201.89 901.59,201.82 896.17,202.49 C893.05,202.88 890.34,203.34 890.15,203.52 C889.97,203.71 890.10,205.19 890.46,206.82 C891.03,209.39 891.53,209.76 894.31,209.64 C897.08,209.52 897.50,209.83 897.50,211.99 C897.50,214.17 896.88,214.62 892.50,215.56 C887.09,216.72 886.91,217.13 888.08,225.45 C888.48,228.30 888.30,228.45 883.02,229.65 C877.42,230.91 876.05,230.45 876.02,227.25 C876.01,226.53 874.71,226.00 872.93,226.00 C870.18,226.00 869.90,226.28 870.18,228.75 C870.46,231.18 870.87,231.47 873.75,231.25 C875.54,231.11 877.00,231.19 877.00,231.43 C877.00,232.32 880.05,246.55 880.51,247.82 C880.77,248.54 881.78,248.91 882.75,248.62 C883.71,248.34 886.24,247.80 888.36,247.42 ZM 860.53 243.50 C860.56,240.88 860.96,240.46 863.70,240.19 C866.33,239.94 866.90,240.26 867.17,242.18 C867.52,244.61 869.66,245.54 871.75,244.19 C872.74,243.55 872.76,242.16 871.85,237.62 C870.83,232.52 870.45,231.92 868.60,232.36 C867.44,232.64 864.82,233.17 862.76,233.54 C859.31,234.17 859.04,234.46 859.26,237.36 C859.46,239.94 859.10,240.56 857.25,240.82 C855.49,241.07 855.00,241.79 855.00,244.14 C855.00,246.82 855.29,247.10 857.75,246.82 C860.06,246.55 860.50,246.02 860.53,243.50 ZM 908.63 243.23 C909.46,242.70 909.48,240.96 908.72,236.77 C907.72,231.29 907.56,231.07 905.09,231.66 C903.66,232.00 902.35,232.41 902.16,232.56 C901.97,232.72 902.38,235.35 903.07,238.42 C904.30,243.94 905.70,245.14 908.63,243.23 ZM 827.45 222.46 C831.92,221.79 832.12,221.62 831.50,219.13 C831.13,217.68 830.68,216.34 830.48,216.15 C829.78,215.44 819.99,217.21 819.41,218.15 C818.38,219.82 819.98,224.22 821.41,223.67 C822.15,223.39 824.86,222.84 827.45,222.46 ZM 886.64 198.56 C896.62,196.60 905.06,195.00 905.39,195.00 C905.73,195.00 906.01,194.21 906.02,193.25 C906.04,191.69 898.91,153.90 898.47,153.23 C898.22,152.85 857.83,160.84 857.29,161.38 C856.94,161.72 861.85,188.29 864.57,200.81 C864.91,202.41 865.59,202.96 866.78,202.61 C867.73,202.34 876.66,200.51 886.64,198.56 ZM 488.27 459.04 C477.15,457.76 470.78,456.01 471.40,454.40 C472.40,451.80 483.93,435.18 488.79,429.36 C497.84,418.50 509.38,406.81 520.35,397.37 L 531.26 388.00 L 540.97 388.00 C550.91,388.00 563.10,385.63 568.72,382.60 C571.37,381.17 571.19,381.12 564.91,381.68 C557.36,382.34 547.06,380.81 540.67,378.07 C537.10,376.54 536.17,375.59 535.64,372.94 C535.28,371.15 535.19,369.48 535.44,369.23 C535.69,368.98 538.05,369.54 540.70,370.48 C543.34,371.42 549.61,372.43 554.64,372.72 C562.13,373.16 565.02,372.88 570.64,371.18 C574.41,370.03 578.40,368.36 579.50,367.46 L 581.50 365.84 L 579.50 366.55 C575.44,368.00 561.00,368.26 556.24,366.97 C550.36,365.37 543.81,362.14 538.25,358.09 L 534.00 354.99 L 534.00 346.56 C534.00,337.90 535.91,326.54 538.35,320.71 C539.11,318.90 543.12,313.08 547.26,307.77 C559.70,291.86 571.08,272.08 577.34,255.50 L 579.98 248.50 L 596.51 248.50 L 613.04 248.50 L 614.03 252.00 C616.12,259.44 621.07,287.23 623.04,302.50 C625.77,323.80 626.69,350.40 625.05,360.66 C619.84,393.17 599.60,422.31 567.36,443.72 C561.19,447.82 542.91,454.43 530.50,457.05 C520.13,459.25 498.80,460.25 488.27,459.04 ZM 821.80 372.59 C814.73,370.07 802.64,361.03 804.21,359.45 C806.65,357.01 864.44,316.59 867.74,315.02 C870.07,313.91 874.01,313.00 876.50,313.00 C887.68,313.00 893.71,328.29 885.85,336.66 C882.59,340.13 839.20,371.01 835.28,372.65 C831.28,374.33 826.61,374.31 821.80,372.59 ZM 803.00 291.64 C803.00,291.44 801.88,285.75 800.50,279.00 C799.12,272.25 798.00,266.41 798.00,266.03 C798.00,265.10 825.89,259.55 826.66,260.33 C827.34,261.00 831.97,283.53 831.99,286.25 C832.00,287.64 831.13,288.00 827.75,288.01 C825.41,288.02 819.22,288.91 814.00,290.00 C804.02,292.07 803.00,292.23 803.00,291.64 ZM 818.00 285.92 C821.58,285.27 824.84,284.43 825.25,284.06 C825.80,283.58 823.42,267.73 822.59,266.32 C822.45,266.10 806.89,268.94 805.33,269.47 C804.46,269.77 804.54,271.60 805.63,276.69 C806.44,280.43 807.31,284.54 807.58,285.81 C807.92,287.42 808.59,287.96 809.78,287.61 C810.73,287.34 814.42,286.58 818.00,285.92 ZM 787.06 209.63 C786.62,208.46 785.67,204.20 784.95,200.17 C783.84,193.90 783.86,192.70 785.08,191.93 C787.83,190.19 788.84,191.05 789.92,196.05 C790.51,198.83 791.00,201.72 791.00,202.49 C791.00,203.26 791.34,204.09 791.75,204.35 C793.01,205.13 809.10,201.57 809.15,200.50 C809.34,196.54 806.46,184.80 805.11,184.04 C804.23,183.55 803.74,182.98 804.01,182.77 C807.49,180.10 810.34,178.93 810.96,179.93 C812.00,181.62 816.23,205.10 815.61,205.73 C815.31,206.02 808.95,207.50 801.46,209.01 L 787.86 211.75 L 787.06 209.63 ZM 810.17 61.90 C810.90,59.55 827.47,47.63 836.75,42.77 C847.88,36.94 857.34,34.04 867.68,33.30 C875.81,32.72 875.89,32.73 878.93,35.78 C887.88,44.72 875.87,54.83 850.00,60.13 C837.46,62.70 809.53,63.94 810.17,61.90 ZM 799.67 245.33 C799.30,244.97 799.00,243.62 799.00,242.33 C799.00,240.43 799.53,240.00 801.88,240.00 C805.87,240.00 806.94,243.69 803.36,245.05 C800.39,246.18 800.51,246.17 799.67,245.33 ZM 884.48 238.93 C883.68,236.43 885.41,234.85 888.50,235.24 C889.90,235.42 890.50,236.25 890.50,238.00 C890.50,241.46 885.52,242.23 884.48,238.93 ZM 869.51 192.75 C868.12,186.87 864.19,166.47 864.41,166.26 C864.92,165.75 889.38,161.00 891.50,161.00 C893.54,161.00 893.92,162.02 896.36,174.25 C897.81,181.54 899.00,188.00 899.00,188.61 C899.00,189.53 875.27,195.00 871.27,195.00 C870.59,195.00 869.80,193.99 869.51,192.75 ZM 884.80 186.58 C888.27,185.83 891.37,184.96 891.70,184.63 C892.21,184.12 889.46,168.09 888.76,167.45 C888.54,167.25 871.90,170.15 871.27,170.50 C871.15,170.57 871.80,174.53 872.72,179.31 C874.62,189.19 874.10,188.87 884.80,186.58 Z" fill="rgb(253,246,242)"/>
</g>
</svg>